<?xml version="1.0" standalone="no"?>
<!DOCTYPE svg PUBLIC "-//W3C//DTD SVG 20010904//EN"
 "http://www.w3.org/TR/2001/REC-SVG-20010904/DTD/svg10.dtd">
<svg version="1.0" xmlns="http://www.w3.org/2000/svg"
 width="2000.000000pt" height="1500.000000pt" viewBox="0 0 2000.000000 1500.000000"
 preserveAspectRatio="xMidYMid meet">

<g transform="translate(0.000000,1500.000000) scale(0.100000,-0.100000)"
fill="#000000" stroke="none">
<path d="M0 7500 l0 -7500 10000 0 10000 0 0 7500 0 7500 -10000 0 -10000 0 0
-7500z m10877 3095 c94 -28 180 -112 204 -199 39 -142 -25 -290 -154 -358 -60
-32 -203 -33 -262 -1 -59 31 -122 99 -147 160 l-22 53 -447 0 c-495 0 -479 -2
-479 64 0 40 15 56 56 56 l32 0 4 96 c3 86 5 98 27 115 31 25 47 24 76 -6 23
-22 25 -32 25 -115 0 -53 4 -90 10 -90 6 0 10 28 10 65 0 52 4 69 20 85 24 24
48 25 78 4 19 -13 22 -24 22 -85 0 -62 2 -69 20 -69 19 0 20 7 20 93 0 108 10
130 60 130 50 0 60 -22 60 -130 l0 -93 204 0 203 0 17 44 c20 53 86 130 130
153 83 43 153 52 233 28z m-532 -610 c422 -68 752 -368 828 -752 18 -91 23
-103 41 -103 36 -1 100 -35 133 -73 54 -61 58 -87 58 -362 0 -239 -1 -252 -22
-291 -28 -53 -91 -107 -142 -122 -21 -7 -72 -12 -114 -12 -77 0 -87 -5 -87
-48 0 -33 -59 -142 -102 -188 -93 -101 -190 -144 -325 -144 -196 0 -359 121
-416 306 l-22 74 -236 0 -236 0 -7 -37 c-19 -117 -120 -244 -241 -304 -67 -33
-74 -34 -185 -34 -108 0 -119 2 -181 31 -121 58 -217 171 -241 285 l-12 59
-101 0 c-125 0 -137 8 -143 104 -6 93 14 255 42 330 78 216 256 369 487 420
24 5 27 12 38 78 16 95 54 208 97 285 203 365 651 569 1089 498z m7078 -2576
c38 -20 67 -52 67 -74 0 -32 -44 -71 -95 -84 -63 -16 -14727 -16 -14790 0 -51
13 -95 52 -95 84 0 22 27 52 65 73 29 16 14817 17 14848 1z m-3 -408 c42 -23
70 -53 70 -76 0 -35 -46 -72 -101 -84 -71 -15 -14707 -15 -14778 0 -56 12
-101 49 -101 84 0 26 49 72 83 80 12 2 31 6 42 8 11 3 3336 4 7390 3 6233 -1
7374 -3 7395 -15z m-13616 -660 c122 -34 216 -73 216 -91 0 -8 -7 -69 -15
-135 -8 -65 -15 -123 -15 -127 0 -5 -12 -2 -27 6 -46 23 -206 74 -273 86 -101
18 -273 14 -363 -9 -109 -29 -170 -64 -257 -151 -89 -88 -138 -180 -172 -317
-29 -122 -29 -323 1 -438 52 -197 164 -348 312 -418 109 -51 165 -62 319 -61
150 1 217 14 363 68 50 19 93 34 94 32 1 -1 10 -62 19 -135 18 -151 23 -138
-64 -171 -231 -88 -509 -101 -736 -35 -350 101 -591 387 -646 764 -18 118 -8
352 20 461 27 111 104 267 176 359 126 162 336 285 557 327 112 21 390 12 491
-15z m1291 -18 c32 -83 665 -1864 665 -1872 0 -7 -47 -11 -147 -11 l-148 0
-84 240 -84 240 -355 -2 -356 -3 -84 -237 -85 -238 -149 0 c-138 0 -150 1
-145 18 11 39 659 1847 668 1864 9 16 24 18 153 18 128 0 145 -2 151 -17z
m1755 -7 c108 -24 234 -88 295 -151 101 -103 145 -226 145 -405 0 -124 -19
-211 -62 -292 -38 -72 -120 -156 -199 -204 l-58 -36 16 -32 c9 -17 103 -192
209 -389 107 -196 194 -360 194 -362 0 -3 -78 -5 -172 -5 l-173 0 -185 358
-185 357 -188 3 -187 2 0 -360 0 -360 -155 0 -155 0 0 951 0 951 393 -5 c311
-4 407 -8 467 -21z m2150 14 c292 -29 468 -154 534 -379 41 -140 26 -346 -35
-469 -38 -78 -132 -177 -210 -221 l-57 -32 212 -392 213 -392 -171 -3 c-138
-2 -173 0 -181 12 -5 7 -91 169 -190 360 l-179 346 -188 0 -188 0 0 -360 0
-360 -155 0 -155 0 0 943 c0 519 3 947 7 950 10 11 635 8 743 -3z m2090 -130
l0 -140 -440 0 -440 0 0 -245 0 -245 350 0 350 0 0 -140 0 -140 -350 0 -350 0
0 -285 0 -285 455 0 455 0 0 -140 0 -140 -605 0 -605 0 0 950 0 950 590 0 590
0 0 -140z m1078 -527 l437 -662 3 665 2 665 148 -3 147 -3 3 -947 2 -948 -125
0 -125 0 -467 701 -468 702 -3 -702 -2 -701 -150 0 -150 0 0 943 c0 519 3 947
7 951 4 3 74 5 156 4 l149 -3 436 -662z m2380 525 l3 -138 -276 0 -275 0 0
-810 0 -810 -150 0 -150 0 0 810 0 810 -270 0 -270 0 0 140 0 140 693 -2 692
-3 3 -137z m1214 -803 c185 -517 337 -943 337 -947 1 -5 -66 -8 -148 -8 l-149
0 -16 43 c-9 23 -47 130 -85 237 l-68 195 -355 3 -355 2 -73 -207 c-40 -115
-79 -223 -86 -240 l-13 -33 -150 0 -150 0 13 38 c8 20 158 442 335 937 177
495 323 906 326 913 3 10 40 12 152 10 l148 -3 337 -940z m858 130 l0 -815
415 0 415 0 0 -135 0 -135 -565 0 -565 0 0 943 c0 519 3 947 7 950 3 4 71 7
150 7 l143 0 0 -815z"/>
<path d="M10740 10479 c-52 -16 -86 -44 -109 -92 -25 -51 -27 -94 -6 -144 20
-48 41 -71 87 -94 133 -68 288 56 249 199 -26 98 -127 158 -221 131z"/>
<path d="M9958 9850 c-159 -33 -314 -112 -430 -219 -124 -115 -211 -263 -242
-413 -9 -42 -16 -80 -16 -83 0 -3 189 -5 420 -5 l420 0 0 370 0 370 -32 -1
c-18 0 -72 -9 -120 -19z"/>
<path d="M10230 9501 l0 -371 414 0 c228 0 417 4 420 8 8 13 -24 152 -49 214
-72 176 -246 352 -430 433 -81 36 -214 73 -290 81 l-65 7 0 -372z"/>
<path d="M9101 8994 c-85 -23 -150 -63 -226 -139 -113 -113 -155 -215 -155
-377 l0 -88 54 0 c53 0 55 1 61 33 13 62 65 154 114 203 115 115 271 159 424
119 81 -21 132 -50 194 -107 62 -60 95 -112 118 -191 l16 -57 238 0 237 0 18
58 c25 80 58 131 119 190 115 108 261 146 410 107 81 -21 132 -50 194 -107 62
-60 95 -112 118 -192 l17 -58 85 4 c81 3 86 4 114 36 l29 32 0 246 0 246 -29
29 -29 29 -1034 -1 c-870 0 -1042 -3 -1087 -15z"/>
<path d="M10530 8641 c-143 -47 -231 -163 -232 -308 0 -84 25 -153 78 -212 65
-72 138 -105 234 -105 66 -1 85 4 143 32 122 60 183 165 175 302 -8 125 -75
223 -187 273 -50 22 -168 32 -211 18z"/>
<path d="M9152 8623 c-60 -21 -144 -102 -173 -165 -19 -42 -24 -70 -23 -133 0
-72 3 -87 33 -143 59 -109 155 -166 281 -166 123 0 219 54 275 156 27 48 30
61 30 148 0 112 -22 168 -92 237 -79 76 -221 105 -331 66z"/>
<path d="M4926 5879 c-9 -24 -67 -189 -130 -366 l-113 -323 258 0 c143 0 259
1 259 3 0 1 -58 166 -129 366 l-128 364 -17 -44z"/>
<path d="M6300 5751 l0 -331 168 0 c308 0 407 36 480 175 24 45 27 61 27 155
0 95 -3 111 -28 162 -34 70 -87 114 -170 140 -51 17 -98 21 -269 26 l-208 4 0
-331z"/>
<path d="M8560 5749 l0 -331 213 4 c182 4 220 8 270 26 83 30 131 72 168 148
28 56 32 75 33 147 1 192 -94 302 -284 327 -41 5 -148 10 -237 10 l-163 0 0
-331z"/>
<path d="M15151 5567 c-68 -194 -126 -358 -129 -364 -3 -10 51 -13 252 -13
141 0 256 4 256 9 0 9 -247 712 -252 717 -2 1 -59 -156 -127 -349z"/>
</g>
</svg>
